<svg width="195" height="41" viewBox="0 0 195 41" fill="none" xmlns="http://www.w3.org/2000/svg">
<path fill-rule="evenodd" clip-rule="evenodd" d="M26.9885 26.4557C26.3618 29.9918 21.396 30.0473 21.396 30.0473L14.566 30.1582C13.4268 30.182 12.508 31.0931 12.4841 32.2076L12.3699 38.9445C12.3247 40.9939 9.63735 41.7729 8.47158 40.059L0.815725 28.6819C-1.22106 25.497 1.19812 22.2249 1.19812 22.2249L11.4723 9.33467C12.6593 7.84256 14.9431 7.86369 16.0849 9.37692L25.1084 21.2003C25.2863 21.401 25.443 21.6466 25.6236 21.8684C26.4521 23.0938 27.3072 24.6546 26.9885 26.4557Z" fill="#1946BB"/>
<path fill-rule="evenodd" clip-rule="evenodd" d="M27.2054 18.2581C26.5782 21.8003 21.6084 21.8559 21.6084 21.8559L14.773 21.967C13.6303 21.9908 12.7107 22.9061 12.6895 24.0199L12.5725 30.7711C12.53 32.8213 9.84051 33.6044 8.67382 31.8848L1.01191 20.4882C-1.02914 17.3004 1.39195 14.0201 1.39195 14.0201L11.6769 1.10759C12.8649 -0.387092 15.1504 -0.365929 16.2932 1.15256L25.3238 12.9936C25.5018 13.1947 25.6586 13.4407 25.8367 13.6629C26.6659 14.8904 27.5243 16.4539 27.2054 18.2581Z" fill="#3D90ED"/>
<path fill-rule="evenodd" clip-rule="evenodd" d="M16.0875 9.37692L24.9912 21.0434C23.4183 21.8374 21.6093 21.8576 21.6093 21.8576L14.7739 21.9687C13.6311 21.9925 12.7116 22.9079 12.6903 24.0216L12.5734 30.7728C12.5309 32.823 9.84135 33.6061 8.67466 31.8865L1.73162 21.5589L11.4749 9.33467C12.6619 7.84256 14.9457 7.86368 16.0875 9.37692Z" fill="#78C6FF"/>
<path d="M70.2669 11.3518C75.4409 11.3518 79.1852 15.1632 79.1852 20.3017C79.1852 25.4403 75.4409 29.2517 70.2669 29.2517C65.127 29.2517 61.3486 25.4403 61.3486 20.3017C61.3486 15.1632 65.127 11.3518 70.2669 11.3518Z" fill="#E13C5A"/>
<path d="M48.7875 28.8071V19.8572H52.2595C57.7058 19.8572 61.1438 17.0667 61.1438 12.0983C61.1438 7.09588 57.7058 4.30541 52.2595 4.30541H44.4985V28.8071H48.7875ZM52.4638 16.25H48.7875V7.9126H52.2936C55.0508 7.9126 56.8208 9.3759 56.8208 12.0983C56.8208 14.7867 55.1188 16.25 52.4638 16.25Z" fill="#FAFAFA"/>
<path d="M88.4268 29.1134L92.2392 18.6661L96.0516 29.1134H98.6045L105.719 11.792H101.396L99.2513 17.7133C98.5705 19.5169 97.8897 21.7288 97.277 23.2262C96.7324 21.5587 96.1197 19.619 95.4729 17.7813L93.4305 11.9622H91.0478C89.8904 15.3652 88.2225 20.2315 87.1673 23.2262C85.9759 19.7551 84.4782 15.6715 83.1166 11.792H78.7596L85.8738 29.1134H88.4268ZM114.398 29.2495C117.257 29.2495 119.538 28.5689 120.729 27.9223V24.2811C119.572 24.9957 117.087 25.7103 114.704 25.7103C111.573 25.7103 109.531 24.0088 109.428 21.1503H121.308C121.308 20.844 121.41 20.0954 121.41 19.3127C121.41 15.093 118.721 11.3496 113.615 11.3496C108.816 11.3496 105.105 15.161 105.105 20.2996C105.105 25.5402 108.748 29.2495 114.398 29.2495ZM117.394 18.7342H109.428C109.633 16.5903 111.096 14.6846 113.547 14.6846C116.1 14.6846 117.428 16.5903 117.394 18.7342ZM127.673 28.8071V21.4906C127.673 18.2918 129.681 15.3312 132.609 15.3312C133.153 15.3312 133.528 15.4673 133.63 15.4673V11.4517C133.528 11.4177 133.085 11.3496 132.574 11.3496C130.226 11.3496 128.456 12.915 127.401 14.9909C127.366 14.8547 127.401 14.3783 127.401 13.7998C127.401 13.1532 127.366 12.4726 127.332 11.792H123.52V28.8071H127.673ZM139.484 36.2937V27.6841C139.484 26.7653 139.382 26.2889 139.382 26.2889H139.45C140.335 27.8542 142.445 29.2495 145.066 29.2495C149.423 29.2495 152.895 25.7784 152.895 20.2996C152.895 14.8888 149.423 11.3496 144.964 11.3496C142.343 11.3496 140.028 12.881 139.211 14.5825H139.143C139.109 14.5825 139.246 14.1061 139.211 13.3914L139.143 11.792H135.331V36.2937H139.484ZM144.283 25.7103C142.003 25.7103 139.586 23.9748 139.586 20.2996C139.586 16.6243 142.003 14.8888 144.283 14.8888C147.041 14.8888 148.947 17.1348 148.947 20.2996C148.947 23.4984 147.041 25.7103 144.283 25.7103ZM159.362 28.8071V4.30541H155.209V28.8071H159.362ZM166.952 29.2495C170.424 29.2495 172.228 26.493 172.535 25.7444H172.603C172.603 25.7444 172.501 26.2548 172.535 27.0375L172.603 28.8071H176.381V18.0195C176.381 13.7658 173.896 11.3496 168.858 11.3496C165.965 11.3496 163.684 12.0643 162.731 12.5747V16.318C163.821 15.6374 165.965 14.8888 168.212 14.8888C170.697 14.8888 172.262 15.7395 172.262 18.2237V18.8703C165.659 17.9515 161.54 19.9933 161.54 24.179C161.54 27.4459 163.923 29.2495 166.952 29.2495ZM167.871 26.0166C166.442 26.0166 165.523 25.1318 165.523 23.8387C165.523 21.899 167.497 20.5718 172.16 21.3205C172.16 23.7026 170.322 26.0166 167.871 26.0166ZM180.976 36.566C184.312 35.9194 186.422 33.197 188.362 28.3647L195 11.792H190.473L188.328 17.8154C187.682 19.5169 186.49 23.2602 185.877 24.6894C185.129 22.4094 184.278 20.0954 183.427 17.8154L181.248 11.792H176.721L183.767 28.705C182.644 31.2232 181.384 33.0949 178.933 33.0949C178.014 33.0949 177.334 32.9247 176.993 32.8226V36.3958C177.334 36.5319 178.082 36.668 178.899 36.668C179.58 36.7021 180.261 36.668 180.976 36.566Z" fill="#FAFAFA"/>
</svg>
